# xmcd
#
# Track frame offsets: 
#        150
#        15794
#        37337
#        53574
#        71222
#        85790
#        101334
#        114754
#        130131
#        142716
#        154759
#        169360
#        185664
#        197099
#        219353
#        237389
#        249968
#
# Disc length: 3493 seconds
#
# Revision: 0
# Processed by: cddbd v1.5.1PL0 Copyright (c) Steve Scherf et al.
# Submitted via: ExactAudioCopy v0.95a5
#
DISCID=dd0da311
DTITLE=Celebridade Samba - 
DYEAR=2004
DGENRE=Latin
TTITLE0=Grupo Revelacao - Pecadora
TTITLE1=Martinho Da Vila - Ex-Amor
TTITLE2=Zeca Pagodinho - Caviar
TTITLE3=Ney Matogrosso - A Ordem Eh Samba
TTITLE4=Grupo Puramizade - Essa Noite Fiquei So
TTITLE5=Banda Raca Negra - Cigana
TTITLE6=Razao Brasileira - Paixao Brasileira
TTITLE7=Teresa Cristina - Quantas Lagrimas
TTITLE8=Picole - Falso Amor Sincero
TTITLE9=So Pra Contrariar - Tudo Menos Amor
TTITLE10=Dudu Nobre - Goiabada Cascao
TTITLE11=Jorge Aragao - Vendi Meu Peixe
TTITLE12=Leci Brandao - Um Raro Prazer
TTITLE13=Grupo Fundo De Quintal - Lucidez
TTITLE14=Swing - Encaixe Perfeito
TTITLE15=Vava - Dona Carola
TTITLE16=Nalanda - Alvorada
EXTD=
EXTT0=
EXTT1=
EXTT2=
EXTT3=
EXTT4=
EXTT5=
EXTT6=
EXTT7=
EXTT8=
EXTT9=
EXTT10=
EXTT11=
EXTT12=
EXTT13=
EXTT14=
EXTT15=
EXTT16=
PLAYORDER=
